<svg xmlns="http://www.w3.org/2000/svg" width="91.011" height="90" viewBox="0 0 91.011 90"><defs><style>.a{fill:none;}.b{fill:#3362a8;}</style></defs><rect class="a" width="91.011" height="90"/><g transform="translate(15.169 15)"><path class="a" d="M0,0H61.065V61.065H0Z"/><path class="b" d="M25.444,50.887A25.444,25.444,0,1,1,50.887,25.444,25.472,25.472,0,0,1,25.444,50.887ZM19.085,11.98a2.55,2.55,0,0,0-2.547,2.548V34.452A2.55,2.55,0,0,0,19.087,37a2.509,2.509,0,0,0,1.243-.33l17.71-9.961a2.545,2.545,0,0,0,0-4.436L20.33,12.311A2.513,2.513,0,0,0,19.085,11.98Zm2.033,18.992V18.008l11.523,6.481L21.122,30.969Z" transform="translate(5.089 5.089)"/></g></svg>