<svg xmlns="http://www.w3.org/2000/svg" width="44" height="44" viewBox="0 0 44 44"><defs><style>.a{fill:none;}.b{fill:#fff;}</style></defs><rect class="a" width="44" height="44"/><g transform="translate(14 14)"><path class="b" d="M15.872,13.993,21.6,8.279a1.337,1.337,0,0,0-1.891-1.891l-5.714,5.728L8.28,6.388A1.337,1.337,0,0,0,6.388,8.279l5.728,5.714L6.388,19.708a1.332,1.332,0,0,0-.008,1.883l.008.008a1.332,1.332,0,0,0,1.883.008L8.28,21.6l5.714-5.728L19.709,21.6a1.332,1.332,0,0,0,1.883.008L21.6,21.6a1.332,1.332,0,0,0,.008-1.883l-.008-.008Z" transform="translate(-5.994 -5.996)"/></g></svg>