<svg xmlns="http://www.w3.org/2000/svg" width="90" height="90" viewBox="0 0 90 90"><defs><style>.a{fill:none;}.b{fill:#3362a8;}</style></defs><rect class="a" width="90" height="90"/><g transform="translate(21 21)"><path class="a" d="M48.852,0H0V48.852H48.852Z"/><path class="b" d="M5.328,13.263l2.5,3.766A16.284,16.284,0,0,0,8.28,32.458H36.492A16.284,16.284,0,0,0,15.1,9.762l-3.766-2.5a20.355,20.355,0,0,1,28.66,27.235,4.071,4.071,0,0,1-3.5,2.036H8.3a4.071,4.071,0,0,1-3.542-2.036,20.355,20.355,0,0,1,.55-21.251Z" transform="translate(2.04 4.181)"/><path class="b" d="M27.285,24.2a4.071,4.071,0,0,1-5.761,0L10,6.92,27.285,18.441a4.071,4.071,0,0,1,0,5.761Z" transform="translate(0.011 7.166)"/></g></svg>