<svg xmlns="http://www.w3.org/2000/svg" width="60" height="60" viewBox="0 0 60 60"><defs><style>.a{fill:none;}.b{fill:#a2a1a0;}</style></defs><g transform="translate(0)"><rect class="a" width="60" height="60" transform="translate(0 0)"/><g transform="translate(14 14)"><path class="a" d="M32.768,0H0V32.768H32.768Z"/><path class="b" d="M4.243,10.226l1.679,2.526a10.923,10.923,0,0,0,.3,10.349H25.146A10.923,10.923,0,0,0,10.8,7.877L8.271,6.2A13.653,13.653,0,0,1,27.494,24.466a2.731,2.731,0,0,1-2.348,1.365H6.236a2.731,2.731,0,0,1-2.376-1.365,13.653,13.653,0,0,1,.369-14.254Z" transform="translate(0.7 1.475)"/><path class="b" d="M21.6,18.512a2.731,2.731,0,0,1-3.864,0L10,6.92,21.6,14.648a2.731,2.731,0,0,1,0,3.864Z" transform="translate(-3.286 2.528)"/></g></g></svg>