<svg xmlns="http://www.w3.org/2000/svg" width="44" height="44" viewBox="0 0 44 44"><defs><style>.a{fill:none;}.b{fill:#fff;}</style></defs><rect class="a" width="44" height="44"/><g transform="translate(0 4)"><g transform="translate(8 4)"><path class="a" d="M0,0H28V28H0Z"/><path class="b" d="M22.29,14.81a9.091,9.091,0,0,0,.082-1.143,9.092,9.092,0,0,0-.082-1.143L24.752,10.6a.589.589,0,0,0,.14-.747L22.558,5.815a.583.583,0,0,0-.513-.292.545.545,0,0,0-.2.035L18.942,6.725A8.524,8.524,0,0,0,16.97,5.582L16.527,2.49A.569.569,0,0,0,15.955,2H11.288a.569.569,0,0,0-.572.49l-.443,3.092A8.963,8.963,0,0,0,8.3,6.725L5.4,5.558a.661.661,0,0,0-.21-.035.578.578,0,0,0-.5.292L2.352,9.852a.575.575,0,0,0,.14.747l2.462,1.925a9.252,9.252,0,0,0-.082,1.143,9.252,9.252,0,0,0,.082,1.143L2.492,16.735a.589.589,0,0,0-.14.747l2.333,4.037a.583.583,0,0,0,.513.292.545.545,0,0,0,.2-.035l2.9-1.167a8.524,8.524,0,0,0,1.972,1.143l.443,3.092a.569.569,0,0,0,.572.49h4.667a.569.569,0,0,0,.572-.49l.443-3.092a8.963,8.963,0,0,0,1.972-1.143l2.905,1.167a.661.661,0,0,0,.21.035.578.578,0,0,0,.5-.292l2.333-4.037a.589.589,0,0,0-.14-.747Zm-2.31-2a6.233,6.233,0,0,1,.058.852c0,.245-.023.5-.058.852l-.163,1.318,1.038.817,1.26.98L21.3,19.045l-1.482-.595L18.6,17.96l-1.05.793a6.833,6.833,0,0,1-1.458.852l-1.237.5-.187,1.318L14.438,23H12.8l-.222-1.575L12.4,20.107l-1.237-.5a6.62,6.62,0,0,1-1.435-.828L8.663,17.96l-1.237.5-1.482.595-.817-1.412,1.26-.98,1.038-.817L7.263,14.53c-.035-.362-.058-.63-.058-.863s.023-.5.058-.852L7.427,11.5,6.388,10.68,5.128,9.7l.817-1.412,1.482.6,1.213.49L9.69,8.58a6.833,6.833,0,0,1,1.458-.852l1.237-.5.187-1.318L12.8,4.333h1.622l.222,1.575.187,1.318,1.237.5a6.62,6.62,0,0,1,1.435.828l1.062.817,1.237-.5,1.482-.6L22.1,9.688l-1.248.992-1.038.817.163,1.318ZM13.622,9a4.667,4.667,0,1,0,4.667,4.667A4.665,4.665,0,0,0,13.622,9Zm0,7a2.333,2.333,0,1,1,2.333-2.333A2.34,2.34,0,0,1,13.622,16Z" transform="translate(0.378 0.333)"/></g></g></svg>