<svg xmlns="http://www.w3.org/2000/svg" width="60" height="60" viewBox="0 0 60 60"><defs><style>.a{fill:none;}.b{fill:#a2a1a0;}</style></defs><g transform="translate(0)"><rect class="a" width="60" height="60" transform="translate(0 0)"/><g transform="translate(14 14)"><path class="a" d="M0,0H32.768V32.768H0Z"/><path class="b" d="M27.083,10.226,25.4,12.752A10.923,10.923,0,0,1,25.1,23.1H6.18A10.923,10.923,0,0,1,20.53,7.877L23.055,6.2A13.653,13.653,0,0,0,3.832,24.466,2.731,2.731,0,0,0,6.18,25.832H25.09a2.731,2.731,0,0,0,2.376-1.365A13.653,13.653,0,0,0,27.1,10.212Z" transform="translate(0.742 1.475)"/><path class="b" d="M10.8,18.512a2.731,2.731,0,0,0,3.864,0L22.4,6.92,10.8,14.648a2.731,2.731,0,0,0,0,3.864Z" transform="translate(3.655 2.528)"/></g></g></svg>