<svg xmlns="http://www.w3.org/2000/svg" width="90" height="90" viewBox="0 0 90 90"><defs><style>.a{fill:none;}.b{fill:#3362a8;}</style></defs><rect class="a" width="90" height="90"/><g transform="translate(15 15)"><path class="b" d="M25,50A25,25,0,1,1,50,25,25.028,25.028,0,0,1,25,50Zm5.625-35A3.129,3.129,0,0,0,27.5,18.126v13.75a3.125,3.125,0,1,0,6.25,0V18.126A3.128,3.128,0,0,0,30.625,15Zm-12.5,0A3.129,3.129,0,0,0,15,18.126v13.75a3.125,3.125,0,0,0,6.251,0V18.126A3.129,3.129,0,0,0,18.124,15Z" transform="translate(5 5)"/><path class="a" d="M0,0H60V60H0Z"/></g></svg>