<svg xmlns="http://www.w3.org/2000/svg" width="111.866" height="48" viewBox="0 0 111.866 48"><defs><style>.a{fill:#3362a8;}.b{fill:none;}</style></defs><path class="a" d="M10.116,47.147c1.388,2.221,3.917,3.116,7.573,3.259a178.919,178.919,0,0,0,18.432-.4,25.64,25.64,0,0,0-1.716,5.3c-4.739.252-12.165.323-16.828.107-4.441-.179-7.388-1.073-9.85-3.832-1.529,1.289-3.1,2.579-5.111,4.12L0,50.263a54.1,54.1,0,0,0,4.814-2.9V40.7H.97V35.9h9.146ZM4.85,22.863A31.315,31.315,0,0,1,10.969,28.2L6.641,31.638a29.29,29.29,0,0,0-5.82-5.659Zm20.672-.793V24.8h9.322v4.3H25.521v1.4H33.8V40.558H27.312a28.35,28.35,0,0,0,8.283,4.62,21.479,21.479,0,0,0-3.661,4.084,26.965,26.965,0,0,1-6.417-4.729v5.121H20.259V44.247a21.527,21.527,0,0,1-6.573,5.086,20.6,20.6,0,0,0-3.433-3.941,20.5,20.5,0,0,0,7.611-4.834h-5.4V30.494h7.8V29.1H11.492V24.8h8.767V22.076Zm-8.1,14.62h2.834V34.4H17.425Zm8.1,0h3.021V34.4H25.521Z" transform="translate(0 -17.692)"/><path class="a" d="M401,209.572c.282,0,1.476-.06,1.9-.107a2.72,2.72,0,0,0,.528-.1l.641.756a7.476,7.476,0,0,0-.629.438c-.472.365-.956.776-1.375,1.1.835-.081,1.9-.141,2.636-.141v.964a10.8,10.8,0,0,0-1.751,0,1.061,1.061,0,0,0-1.039.958c0,.452.343.647.944.708a7.143,7.143,0,0,0,1.059.014l-.2,1.081c-1.773.073-2.838-.452-2.838-1.626a1.609,1.609,0,0,1,.323-.944c-.559.042-1.228.143-1.835.25l-.093-.992c.357-.034.835-.1,1.19-.135a15.617,15.617,0,0,0,1.714-1.371c-.264.022-.9.056-1.166.081-.163.014-.4.042-.655.067l-.048-1.037A6.408,6.408,0,0,0,401,209.572Z" transform="translate(-320.076 -167.842)"/><path class="a" d="M439.288,209.533c-.424.315-1.267.964-1.694,1.335-.329.284-.315.343,0,.633.444.385,1.773,1.416,2.448,2.057l-.958.885c-.216-.244-.438-.48-.66-.7-.371-.4-1.343-1.22-1.956-1.745-.688-.6-.647-.992.067-1.587.54-.438,1.41-1.154,1.861-1.587a5.053,5.053,0,0,0,.6-.641l.95.843C439.7,209.211,439.471,209.388,439.288,209.533Z" transform="translate(-349.5 -166.888)"/><path class="a" d="M471.093,209.709c.432-.25.843-.466,1.127-.629a4.736,4.736,0,0,0,.7-.458l.512.964c-.242.143-.486.27-.756.4a14.986,14.986,0,0,0-1.565.837c-.518.343-.9.7-.9,1.146s.432.655,1.3.655a11.719,11.719,0,0,0,2.225-.256l-.014,1.172a12.282,12.282,0,0,1-2.182.175c-1.388,0-2.461-.377-2.461-1.624a2.258,2.258,0,0,1,1.1-1.785c-.309-.573-.627-1.267-.924-1.97l1.025-.419A13.812,13.812,0,0,0,471.093,209.709Zm2.928-.992-.641.27a9.254,9.254,0,0,0-.52-.938l.635-.256c.169.25.4.688.528.924Zm.835-.331-.635.27a7.506,7.506,0,0,0-.534-.93l.635-.256A9.955,9.955,0,0,1,474.856,208.386Z" transform="translate(-376.039 -166.319)"/><path class="a" d="M507.288,209.533c-.424.315-1.267.964-1.694,1.335-.329.284-.315.343,0,.633.444.385,1.773,1.416,2.448,2.057l-.958.885c-.216-.244-.438-.48-.661-.7-.371-.4-1.343-1.22-1.956-1.745-.688-.6-.647-.992.067-1.587.54-.438,1.41-1.154,1.861-1.587a5.051,5.051,0,0,0,.6-.641l.95.843C507.7,209.211,507.471,209.388,507.288,209.533Z" transform="translate(-404.013 -166.888)"/><rect class="a" width="10.26" height="3.868" transform="translate(38.608 14.783)"/><path class="a" d="M262.867,77.169h-6.046v4.155h18.171V77.169h-6.752V75.7h7.872V71.51h-7.872v-2.4h-5.373v2.4H255.59V75.7h7.277Z" transform="translate(-204.894 -55.402)"/><rect class="a" width="13.47" height="4.046" transform="translate(36.668 19.69)"/><rect class="a" width="10.596" height="3.868" transform="translate(38.384 24.811)"/><path class="a" d="M160.693,140.833h11.679v3.223h5V136.82H155.919v7.236h4.625c-.262,4.405-1.081,7.236-5.633,9.061v-8.63H144.054v9.229h-10.07a1.983,1.983,0,0,0,0,3.967H156.6a1.984,1.984,0,0,0,.754-.149c.01.02.02.042.028.062,7.089-2.938,8.023-7.987,8.245-15.4h-4.929ZM148.419,148.5h2.089v3.037h-2.089Z" transform="translate(-105.818 -109.682)"/><rect class="a" width="10.596" height="3.868" transform="translate(38.384 29.754)"/><path class="a" d="M316.977,170.179c-.073,3.9-.224,4.477-.708,4.477H315.6c-.411,0-.448-.107-.448-1.254V164.09h-5v9.348c0,4.227.793,5.695,4.514,5.695h2.164c2.91,0,4.141-1.5,4.552-7.055A13.437,13.437,0,0,1,316.977,170.179Z" transform="translate(-248.633 -131.543)"/><path class="a" d="M85.355,222H81.983a1.983,1.983,0,1,0,0,3.967h3.372a1.983,1.983,0,1,0,0-3.967Z" transform="translate(-64.132 -177.967)"/><path class="b" d="M430.955,53.963a1.694,1.694,0,0,1,.452-.063h.1l8.237-8.6a1.091,1.091,0,1,1,1.575,1.511l-8.235,8.6a1.638,1.638,0,0,1,.01.173,1.688,1.688,0,1,1-3.372.184l-6.264-4.239a1.091,1.091,0,0,1,1.222-1.809Z" transform="translate(-339.081 -36.048)"/><path class="a" d="M423.163,50.04a1.091,1.091,0,0,0,.294,1.515l6.268,4.239a1.688,1.688,0,1,0,3.372-.184,1.655,1.655,0,0,0-.01-.173l8.235-8.592a1.091,1.091,0,1,0-1.575-1.511l-8.237,8.59h-.1a1.694,1.694,0,0,0-.452.063l-6.28-4.241a1.091,1.091,0,0,0-1.515.294Z" transform="translate(-339.08 -36.072)"/><path class="a" d="M221.355,1.983A1.983,1.983,0,0,0,219.372,0h-1.388a1.983,1.983,0,1,0,0,3.967h1.388A1.983,1.983,0,0,0,221.355,1.983Z" transform="translate(-173.157)"/><path class="a" d="M247.537,33h-5.554a1.983,1.983,0,0,0,0,3.967h5.554a1.983,1.983,0,0,0,0-3.967Z" transform="translate(-192.397 -26.455)"/><path class="a" d="M405.9,20.21h-.026a.024.024,0,0,0,.026,0Z" transform="translate(-325.367 -16.201)"/><path class="a" d="M319.273,56.028a1.314,1.314,0,0,1,.218-.02h4.641a15.491,15.491,0,0,1-3.616-8.826h1.137a1.091,1.091,0,1,0,0-2.182H320.5a15.568,15.568,0,0,1,6.972-12H305.983a1.983,1.983,0,0,0,0,3.967H318.7A19.557,19.557,0,0,0,319.273,56.028Z" transform="translate(-243.702 -26.455)"/><path class="a" d="M299.955,0H260.983a1.983,1.983,0,1,0,0,3.967l27.122.042h10.663V5.157a1.091,1.091,0,0,0,2.182,0V4a15.59,15.59,0,0,1,14.525,14.344h-1.137a1.091,1.091,0,0,0,0,2.182h1.154a15.59,15.59,0,0,1-14.344,14.529v-1.14a1.091,1.091,0,0,0-2.182,0v1.154a15.457,15.457,0,0,1-8.132-2.94h-5.816A19.537,19.537,0,1,0,299.955,0Z" transform="translate(-207.628)"/></svg>