<svg xmlns="http://www.w3.org/2000/svg" width="73.578" height="44" viewBox="0 0 73.578 44"><defs><style>.a{fill:#fff;}</style></defs><path class="a" d="M61.729,20.843H53.907V30.936h5.426a20.567,20.567,0,0,1-7.633,4.85,20.51,20.51,0,0,1,3.443,3.951,21.585,21.585,0,0,0,6.586-5.1v5.424H67V34.922a27.078,27.078,0,0,0,6.437,4.743,21.531,21.531,0,0,1,3.668-4.1A28.376,28.376,0,0,1,68.8,30.936h6.51V20.843H67V19.45h9.354V15.131H67V12.4H61.729v2.731H52.936v4.311h8.793Zm0,6.214H58.885v-2.3h2.844ZM67,24.758h3.031v2.291H67Z" transform="translate(-41.41 -9.932)"/><path class="a" d="M9.976,25.171l4.341-3.447A31.767,31.767,0,0,0,8.18,16.37L4.14,19.5A29.3,29.3,0,0,1,9.976,25.171Z" transform="translate(-3.316 -13.112)"/><path class="a" d="M36.224,96.223a182.247,182.247,0,0,1-18.486.4c-3.666-.143-6.21-1.041-7.6-3.268V82.07H.973v4.813H4.827v6.682A53.491,53.491,0,0,1,0,96.474l2.619,5.459c2.02-1.544,3.593-2.836,5.127-4.13,2.47,2.767,5.426,3.664,9.878,3.843,4.677.215,12.123.143,16.876-.107A25.676,25.676,0,0,1,36.224,96.223Z" transform="translate(0 -65.735)"/><rect class="a" width="10.626" height="3.879" transform="translate(39.116 25.655)"/><rect class="a" width="13.508" height="4.058" transform="translate(37.394 15.56)"/><rect class="a" width="10.626" height="3.879" transform="translate(39.116 20.697)"/><rect class="a" width="10.29" height="3.879" transform="translate(39.341 10.64)"/><path class="a" d="M279.15,54.65v-4.2h-7.9V48.04h-5.388v2.406h-7.3v4.2h7.3v1.473H259.8V60.29h18.223V56.123h-6.773V54.65Z" transform="translate(-207.106 -38.479)"/><path class="a" d="M319.939,149.1c-.076,3.915-.225,4.49-.713,4.49h-.673c-.412,0-.45-.107-.45-1.258V143H313.09v9.374c0,4.239.8,5.712,4.528,5.712h2.169c2.92,0,4.154-1.509,4.566-7.078A13.526,13.526,0,0,1,319.939,149.1Z" transform="translate(-250.775 -114.538)"/><path class="a" d="M154.174,119.744h11.711v3.232H170.9V115.72H149.384v7.257h4.639c-.261,4.419-1.085,7.257-5.649,9.088v-8.656H137.486v9.3h-12.5a1.99,1.99,0,1,0,0,3.981h25.078a1.977,1.977,0,0,0,.769-.155l.01.022c7.109-2.946,8.045-8.011,8.27-15.447h-4.942Zm-12.312,7.687h2.1v3.053h-2.1Z" transform="translate(-98.519 -92.688)"/><path class="a" d="M212,4.479l.094,1c.609-.107,1.28-.209,1.841-.249a1.618,1.618,0,0,0-.324.947c0,1.176,1.069,1.7,2.848,1.63l.217-1.083a7.166,7.166,0,0,1-1.063-.014c-.6-.06-.947-.257-.947-.711a1.066,1.066,0,0,1,1.043-.961,10.861,10.861,0,0,1,1.759,0V4.067c-.736,0-1.805.06-2.645.141.42-.324.908-.736,1.381-1.1a7.624,7.624,0,0,1,.629-.44L216.18,1.9a2.732,2.732,0,0,1-.527.1c-.428.048-1.624.107-1.909.107a6.432,6.432,0,0,1-.7-.026l.044,1.037c.251-.026.494-.054.657-.068.271-.026.906-.06,1.17-.082a15.42,15.42,0,0,1-1.716,1.379C212.832,4.384,212.352,4.446,212,4.479Z" transform="translate(-169.805 -1.522)"/><path class="a" d="M249.212,4.581c.617.527,1.592,1.359,1.962,1.751.223.223.448.46.663.7l.961-.888c-.677-.643-2.01-1.678-2.456-2.064-.324-.291-.338-.35,0-.635.426-.372,1.272-1.021,1.7-1.339.183-.149.412-.324.663-.508L251.743.75a4.909,4.909,0,0,1-.6.643c-.454.432-1.328,1.15-1.869,1.592C248.563,3.57,248.523,3.984,249.212,4.581Z" transform="translate(-199.215 -0.601)"/><path class="a" d="M302,2.557c-.121-.237-.358-.677-.527-.927l-.637.257a9.13,9.13,0,0,1,.522.941Z" transform="translate(-240.963 -1.306)"/><path class="a" d="M306.174.92a9.563,9.563,0,0,0-.533-.92L305,.257a7.524,7.524,0,0,1,.539.937Z" transform="translate(-244.295 0)"/><path class="a" d="M281.77,6.5c0,1.252,1.077,1.63,2.47,1.63a12.324,12.324,0,0,0,2.189-.175l.014-1.176a11.759,11.759,0,0,1-2.239.255c-.866,0-1.3-.211-1.3-.657s.378-.806.9-1.15a14.83,14.83,0,0,1,1.568-.84c.271-.135.515-.263.758-.4l-.513-.967a4.753,4.753,0,0,1-.7.46c-.285.163-.7.38-1.13.631a13.872,13.872,0,0,1-.818-1.791l-1.029.42c.3.7.617,1.393.927,1.976A2.251,2.251,0,0,0,281.77,6.5Z" transform="translate(-225.689 -1.858)"/><path class="a" d="M317.212,4.581c.617.527,1.592,1.359,1.962,1.751.223.223.448.46.663.7l.961-.888c-.677-.643-2.01-1.678-2.456-2.064-.324-.291-.338-.35,0-.635.426-.372,1.272-1.021,1.7-1.339.183-.149.412-.324.663-.508L319.743.75a4.914,4.914,0,0,1-.6.643c-.454.432-1.328,1.15-1.869,1.592C316.563,3.57,316.523,3.984,317.212,4.581Z" transform="translate(-253.681 -0.601)"/><path class="a" d="M73.175,201.07H69.99a1.99,1.99,0,0,0,0,3.981h3.185a1.99,1.99,0,0,0,0-3.981Z" transform="translate(-54.466 -161.051)"/></svg>